<?xml version="1.0" standalone="no"?>
<svg version="1.0" xmlns="http://www.w3.org/2000/svg" width="200.000000pt" height="200.000000pt" viewBox="0 0 200.000000 200.000000" preserveAspectRatio="xMidYMid meet">
    <g transform="translate(0.000000,200.000000) scale(0.100000,-0.100000)" fill="#ffffff" stroke="none">
        <path d="M852 1884 c-30 -21 -29 -68 2 -97 l23 -22 -18 -90 c-10 -49 -19 -91
        -19 -93 0 -2 -8 -1 -19 3 -16 5 -20 -1 -26 -41 -3 -25 -5 -47 -3 -49 5 -6 330
        -159 404 -191 31 -13 32 -13 57 25 21 32 23 40 12 45 -24 9 -18 23 39 95 51
        63 58 68 92 67 75 -2 100 94 31 118 -38 14 -80 -10 -87 -48 -5 -27 -12 -31
        -95 -57 -49 -15 -91 -26 -94 -24 -2 2 2 47 9 99 13 91 15 95 41 101 39 9 57
        56 35 90 -21 33 -59 42 -90 21 -30 -19 -40 -49 -26 -76 13 -24 9 -31 -67 -114
        -28 -31 -54 -52 -57 -47 -3 4 -21 45 -40 90 -34 81 -34 83 -15 102 25 25 24
        50 -2 83 -23 29 -54 33 -87 10z"/>
        <path d="M789 1428 c-19 -34 -16 -127 5 -168 10 -19 32 -50 49 -67 l31 -33
        -47 0 -47 0 0 -69 0 -69 50 3 c62 2 64 -3 55 -144 -12 -185 -40 -285 -107
        -381 -21 -31 -38 -65 -38 -75 0 -43 -12 -65 -35 -65 -20 0 -24 -7 -30 -50 -6
        -46 -9 -50 -35 -50 -32 0 -40 -14 -40 -71 l0 -39 396 0 396 0 -6 23 c-3 12 -6
        37 -6 55 0 29 -3 32 -30 32 -28 0 -30 3 -36 50 -6 44 -10 50 -30 50 -23 0 -27
        6 -40 70 -3 19 -17 48 -31 64 -70 84 -113 254 -113 452 l0 86 28 -2 c83 -6 82
        -7 82 65 l0 65 -52 0 -53 0 26 23 c28 23 65 75 58 81 -5 5 -164 79 -274 128
        -49 23 -95 45 -102 50 -8 6 -16 2 -24 -14z"/>
    </g>
</svg>
